<?xml version="1.0" encoding="UTF-8" standalone="no"?>
<!-- Created with Inkscape (http://www.inkscape.org/) -->

<svg
   width="210mm"
   height="297mm"
   viewBox="0 0 210 297"
   version="1.1"
   id="svg1"
   xml:space="preserve"
   inkscape:version="1.4 (86a8ad7, 2024-10-11)"
   sodipodi:docname="LogoWithRing.svg"
   xmlns:inkscape="http://www.inkscape.org/namespaces/inkscape"
   xmlns:sodipodi="http://sodipodi.sourceforge.net/DTD/sodipodi-0.dtd"
   xmlns="http://www.w3.org/2000/svg"
   xmlns:svg="http://www.w3.org/2000/svg"><sodipodi:namedview
     id="namedview1"
     pagecolor="#ffffff"
     bordercolor="#000000"
     borderopacity="0.25"
     inkscape:showpageshadow="2"
     inkscape:pageopacity="0.0"
     inkscape:pagecheckerboard="0"
     inkscape:deskcolor="#d1d1d1"
     inkscape:document-units="mm"
     inkscape:zoom="1.0396254"
     inkscape:cx="280.87039"
     inkscape:cy="569.91681"
     inkscape:window-width="3440"
     inkscape:window-height="1369"
     inkscape:window-x="5752"
     inkscape:window-y="704"
     inkscape:window-maximized="1"
     inkscape:current-layer="layer1" /><defs
     id="defs1" /><g
     inkscape:label="Layer 1"
     inkscape:groupmode="layer"
     id="layer1"><path
       style="fill:#7a0000;fill-opacity:1;stroke-width:0.251684"
       d="m 94.698658,264.18432 c -0.0338,-0.20764 -0.80016,-6.60669 -1.703,-14.22011 -2.5808,-21.76301 -3.50946,-29.59559 -5.01318,-42.28283 -0.7711,-6.50602 -1.58178,-13.28527 -1.80149,-15.06499 -0.21972,-1.77973 -0.30401,-3.32441 -0.1873,-3.43263 2.897312,-2.1443 5.839322,-4.22856 8.76943,-6.32796 l 0.0644,20.40374 c 0.0663,20.99859 -0.0195,61.59601 -0.12886,60.92478 z m 23.365062,-40.96148 c -0.0109,-22.18276 0.0411,-40.33228 0.11562,-40.33228 1.68442,1.35028 7.17779,5.72352 8.46674,6.8073 0.39667,0.33354 -1.54718,13.95583 -6.97503,61.27308 -0.7622,6.64444 -1.43119,12.19406 -1.48664,12.33249 -0.0554,0.13842 -0.10976,-17.89784 -0.12069,-40.08059 z m -15.83855,37.13123 c -0.0206,-0.51474 -0.20627,-3.9691 -0.41269,-7.67635 -0.20642,-3.70725 -0.60081,-11.10087 -0.87642,-16.43026 -1.238472,-23.94791 -1.815792,-34.99991 -2.278192,-43.61355 -0.27336,-5.09231 -0.49701,-9.97103 -0.49701,-10.84161 v -1.58285 c 3.846042,-2.83434 4.514782,-3.23276 6.469352,-4.86962 0.13487,-0.11295 0.12109,2.85963 0.0243,6.35501 -0.0967,3.49538 -0.35093,12.92417 -0.56485,20.95287 -0.2139,8.0287 -0.44434,16.18325 -0.51206,18.12121 -0.0677,1.93797 -0.30034,10.54554 -0.51694,19.12795 -0.34947,13.84712 -0.72867,23.13185 -0.83552,20.4572 z m 7.79494,-1.4551 c -0.0161,-1.31505 -0.19758,-8.5069 -0.40316,-15.9819 -0.3756,-13.65551 -0.90962,-34.3134 -1.3891,-53.73442 -0.14182,-5.74468 -0.29791,-11.20936 -0.34684,-12.14374 -0.0556,-1.06174 0.0387,-1.79264 0.17186,-1.69886 2.61972,1.84512 3.93603,2.82414 7.04954,5.2274 0.0916,0.0707 -0.0501,2.67547 -0.23639,5.72084 -0.7818,12.78039 -1.39398,22.89967 -1.85756,30.70538 -0.27129,4.56806 -0.66192,10.96711 -0.86808,14.22011 -0.20616,3.25302 -0.66488,10.84127 -1.01938,16.8628 -0.68244,11.59194 -1.04737,15.17942 -1.10089,10.82239 z m 12.55404,-12.60333 c 0,-0.13403 0.43799,-1.11894 0.97331,-2.18867 2.4083,-4.81248 3.79873,-10.3393 3.05367,-12.13802 -0.31781,-0.76729 -1.36409,-1.51021 -2.12685,-1.51021 -0.25955,0 -0.38747,-0.23155 -0.38237,-0.69213 0.0141,-1.27201 1.44329,-14.61293 1.59114,-14.85214 0.0802,-0.12972 1.03886,-0.30473 2.13042,-0.38891 6.16802,-0.47563 14.9834,-3.41929 21.48153,-7.17315 11.67337,-6.74351 20.81201,-17.56253 25.84683,-30.59941 1.15873,-3.00036 2.11515,-6.21131 1.91094,-6.41552 -0.25787,-0.25788 -4.47382,0.50679 -6.03593,1.09476 -0.87934,0.33099 -2.74086,1.17576 -4.1367,1.87728 -1.39585,0.70151 -2.60178,1.27548 -2.67983,1.27548 -0.0781,0 0.22067,-0.48135 0.66386,-1.06965 1.87592,-2.49021 5.09289,-7.56647 6.4996,-10.25611 5.14518,-9.83755 6.90428,-18.33127 5.69967,-27.52053 -0.44104,-3.36451 -1.0829,-5.6317 -2.3007,-8.12665 l -0.87653,-1.79576 2.53372,-5.06262 c 1.39355,-2.78444 2.62282,-5.06261 2.73171,-5.06261 0.59717,0 6.49911,11.06724 8.72414,16.35942 4.87935,11.60539 6.64953,20.24178 9.59517,46.81313 0.0844,0.76135 0.0972,1.32764 0.0284,1.25842 -0.0688,-0.0692 -0.71468,-1.00933 -1.43529,-2.08914 -1.80656,-2.70712 -4.16401,-5.00196 -6.0981,-5.93619 -1.92171,-0.92825 -3.41478,-1.24221 -3.55809,-0.74819 -0.58549,2.01834 -2.87218,7.54408 -4.20688,10.16583 -5.33246,10.47452 -14.45647,22.14606 -24.6428,31.52337 -7.29204,6.71289 -7.33544,6.76718 -11.82002,14.78468 -1.52422,2.72501 -3.27027,5.65048 -3.8801,6.50105 -2.28328,3.18461 -6.98385,7.06394 -11.087,9.14999 -2.70515,1.3753 -8.19688,3.26612 -8.19688,2.8222 z M 69.846448,232.19752 c -4.33437,-0.24612 -10.77293,-0.88241 -13.96843,-1.38044 -8.26573,-1.28825 -16.42126,-5.07661 -21.91164,-10.17827 -1.1843,-1.10045 -1.16873,-1.10492 1.2736,-0.36563 1.82441,0.55226 8.38438,0.79101 10.69201,0.38916 0.92335,-0.1608 2.29026,-0.52113 3.03756,-0.80072 1.64824,-0.61669 4.13432,-2.40483 4.62152,-3.32408 0.35244,-0.66499 0.32339,-0.70429 -3.14965,-4.2603 -4.23571,-4.33692 -6.205,-6.75591 -9.27362,-11.39131 -7.3383,-11.08511 -11.35416,-23.10768 -12.48427,-37.375 -0.8762,-11.06184 0.89587,-24.39939 4.09634,-30.83122 0.90598,-1.82072 2.0255,-3.64835 2.23515,-3.64897 0.0839,-2.5e-4 -0.16236,1.12143 -0.54729,2.4926 -1.74094,6.20145 -2.4766,13.82333 -2.03427,21.07604 0.54172,8.88249 1.5992,15.52417 3.44224,21.61957 3.10043,10.25395 8.64672,19.67803 17.32346,29.43549 2.75437,3.09745 6.45468,6.9213 6.69767,6.9213 0.32531,0 0.81655,-2.0961 0.94289,-4.02329 0.14662,-2.23651 -0.27332,-4.26611 -1.54587,-7.47128 -0.48131,-1.21227 -0.84562,-2.2336 -0.80958,-2.26964 0.036,-0.036 1.37966,1.11554 2.98582,2.55906 3.46871,3.11746 5.84492,5.88743 7.99302,9.31753 0.86689,1.38425 1.9212,2.96986 2.34292,3.52356 1.34984,1.7723 4.0368,4.41861 5.52277,5.43921 2.07546,1.42548 5.73144,3.14777 8.53391,4.02025 l 2.42535,0.75506 0.1507,1.81404 c 0.0829,0.99772 0.22433,3.25807 0.31433,5.023 l 0.16364,3.20896 -7.77335,-0.0373 c -4.27535,-0.0206 -9.35896,-0.12733 -11.29693,-0.23738 z m 54.980302,-48.24924 c -1.18352,-0.92781 -5.56128,-4.36898 -9.72834,-7.64704 -4.16706,-3.27807 -7.79789,-6.09839 -8.0685,-6.26739 -0.43975,-0.27463 -1.2379,0.26376 -7.511982,5.06716 -3.86098,2.95593 -8.20916,6.27563 -9.66263,7.37712 -1.45348,1.10148 -2.89706,2.23049 -3.20798,2.50892 -0.31091,0.27842 -0.63629,0.43523 -0.72306,0.34846 -0.13605,-0.13606 -3.28997,-27.42699 -4.16207,-36.01445 -0.167,-1.64447 -0.4247,-3.09972 -0.57265,-3.23388 -0.14796,-0.13415 -9.1031,-4.67987 -19.90032,-10.1016 l -19.63132,-9.85767 -3.77525,-7.56761 c -8.46863,-16.97563 -19.52749,-39.676899 -19.39367,-39.810709 0.0634,-0.0634 2.64223,2.13498 5.73086,4.88517 11.40049,10.15126 18.39881,16.33342 18.79395,16.602149 0.430961,0.29307 25.312547,6.35872 63.554382,15.67527 32.94689,-8.3426 63.79333,-15.985905 64.55,-16.272289 0.26506,-0.10032 5.10894,-4.49121 10.76419,-9.75753 13.15896,-12.25398 12.49343,-11.65893 12.20244,-10.91019 -0.12874,0.33128 -2.12114,4.50971 -4.42755,9.2854 -4.76468,9.86585 -5.70025,11.810579 -12.91628,26.848379 l -5.21438,10.86647 -20.00884,9.98458 c -11.00486,5.49153 -20.03958,10.01386 -20.07715,10.04963 -0.0656,0.0624 -0.3991,3.1997 -2.07506,19.51776 -0.41941,4.08357 -1.0431,10.12916 -1.38599,13.43463 -0.34287,3.30549 -0.62341,6.16523 -0.62341,6.35501 0,0.55397 -0.25894,0.41416 -2.52939,-1.36575 z M 99.823868,160.02329 c 1.784652,-1.43371 3.390492,-2.74432 3.568542,-2.91247 0.2637,-0.24904 0.22575,-2.65901 -0.20472,-12.99764 -0.29064,-6.98054 -0.60877,-13.01382 -0.70697,-13.40727 -0.17041,-0.68283 -0.28704,-0.56264 -2.563812,2.64206 -1.31189,1.84659 -3.67223,5.10856 -5.24518,7.24882 l -2.8599,3.89139 0.16112,1.37093 c 0.29224,2.48655 3.24908,16.6486 3.59657,17.22615 0.14526,0.24142 0.11754,0.26137 4.25435,-3.06197 z m 19.652832,-5.84243 c 1.00625,-4.76592 1.83168,-8.87287 1.83429,-9.12657 0.003,-0.2537 -1.33278,-2.29234 -2.96753,-4.5303 -1.63474,-2.23797 -3.91957,-5.45564 -5.0774,-7.15037 -1.15783,-1.69473 -2.15841,-3.02806 -2.22352,-2.96295 -0.22278,0.22279 -1.09834,12.32718 -1.69438,23.42435 l -0.16297,3.03411 1.34621,1.03044 c 0.74041,0.56675 2.53541,1.94551 3.98888,3.06393 1.45347,1.11843 2.75162,1.99956 2.88478,1.95808 0.13315,-0.0415 1.06539,-3.9748 2.07164,-8.74072 z m -34.162242,-16.9215 c 2.69544,-3.74622 6.79855,-10.09664 6.62175,-10.24855 -0.10631,-0.0913 -2.85484,-1.22219 -6.10785,-2.51302 -9.15924,-3.63444 -23.84852,-9.98537 -32.59302,-14.09162 -6.7435,-3.16663 -8.21795,-3.82135 -8.33719,-3.70212 -0.21983,0.21983 2.87619,3.69128 6.55607,7.35108 2.87336,2.85766 4.96984,4.59508 11.09342,9.19343 12.48831,9.37778 21.03249,15.60281 21.38963,15.58382 0.14033,-0.007 0.76007,-0.71533 1.37719,-1.57302 z m 51.479812,-4.29631 c 19.50861,-14.31041 21.92073,-16.19405 25.54587,-19.9489 3.88981,-4.02899 5.70834,-6.132 5.30251,-6.132 -0.15477,0 -1.06478,0.3945 -2.02224,0.87667 -0.95746,0.48217 -2.85169,1.37473 -4.20942,1.98346 -1.35771,0.60873 -4.16744,1.86972 -6.24382,2.80221 -5.46854,2.45585 -33.58892,14.47234 -33.86746,14.47234 -0.5155,0 -0.15111,0.79059 1.80412,3.91424 3.23256,5.16428 5.3887,8.01536 5.85353,7.74016 0.15752,-0.0933 3.68413,-2.66194 7.83691,-5.70818 z M 20.194358,166.40528 c -1.02632,-3.56194 -1.6678,-11.635 -1.4899,-18.75041 0.28867,-11.54534 1.9814,-19.85108 7.58944,-37.23929 1.04741,-3.24758 1.9911,-5.99142 2.0971,-6.09741 0.10599,-0.106 1.70437,2.83724 3.55196,6.54053 l 3.35924,6.73326 -1.073,2.13267 c -2.95281,5.86895 -8.10472,18.12156 -9.26669,22.03862 -1.46628,4.94291 -3.14207,14.1494 -4.1418,22.75441 -0.32797,2.82284 -0.34344,2.86949 -0.62635,1.88762 z M 187.92943,101.96493 c -1.22196,-0.1778 -2.27687,-0.37839 -2.34423,-0.44575 -0.0992,-0.0992 1.51704,-3.587969 1.81369,-3.915079 0.0796,-0.0878 1.89038,1.81512 3.6197,3.803929 l 0.82067,0.94382 -0.84405,-0.0318 c -0.46422,-0.0175 -1.84382,-0.1773 -3.06578,-0.3551 z m -29.37317,-3.067069 c -7.68459,-6.81169 -13.45055,-10.86152 -19.87437,-13.95915 -10.81501,-5.21511 -25.54744,-8.38442 -38.885102,-8.36514 -6.41115,0.009 -9.64366,0.41111 -15.21451,1.89135 -12.10502,3.21646 -25.49453,10.82048 -34.65463,19.68068 l -1.54593,1.4953 -2.33027,-0.53653 -2.33028,-0.53653 -2.89335,-2.70122 c -1.59134,-1.48567 -3.57182,-3.32647 -4.40107,-4.09067 l -1.50772,-1.38944 1.20612,-2.25997 c 1.8126,-3.39637 4.03236,-7.01069 5.86573,-9.55087 1.70919,-2.36812 5.43953,-7.06339 5.77797,-7.27256 0.10727,-0.0663 -0.16942,0.9676 -0.61486,2.29753 -1.1426,3.41139 -1.28455,5.12259 -0.60932,7.34564 0.92901,3.05853 2.80291,4.48936 4.95106,3.78041 0.53218,-0.17564 2.21725,-1.13706 3.7446,-2.1365 7.88908,-5.16229 14.37721,-8.40461 21.42618,-10.70731 3.68144,-1.20263 5.28229,-2.12601 6.23612,-3.59703 0.82197,-1.26766 0.89246,-3.27728 0.17071,-4.867 -1.05879,-2.33211 -4.41388,-5.01022 -7.17643,-5.72839 -3.1267,-0.81283 -8.55607,-0.40057 -13.35266,1.01386 -1.24397,0.36684 -2.48828,0.72903 -2.76514,0.80488 -0.77657,0.21278 1.46432,-1.59221 4.15279,-3.34499 12.47841,-8.13544 29.55292,-12.43532 49.441572,-12.45088 13.44973,-0.0105 25.10527,2.17977 34.49487,6.48225 4.15223,1.90262 10.84129,5.84021 10.25383,6.03603 -0.30718,0.10239 -3.45883,-0.44841 -12.01561,-2.09992 -7.0235,-1.35558 -11.00092,-1.72006 -16.35943,-1.49914 -9.29228,0.3831 -16.88399,1.76589 -21.4655,3.90984 -5.3478,2.50253 -7.48241,6.71019 -4.80539,9.47218 1.31364,1.35534 2.81585,1.76317 7.19351,1.95297 6.26278,0.27153 11.67733,1.11698 17.26717,2.69615 3.85219,1.08827 12.12072,3.90991 17.25457,5.88812 11.1966,4.31436 32.24966,13.54907 32.24966,14.14598 0,0.18305 -2.44437,2.52845 -6.33315,6.0767 -1.09497,0.99908 -1.44924,1.14406 -5.28535,2.16287 -6.15366,1.634299 -5.37332,1.638539 -7.26639,-0.0395 z"
       id="path22299"
       inkscape:export-filename="C:\FRC\8517\2023\Mando.png"
       inkscape:export-xdpi="42.103832"
       inkscape:export-ydpi="42.103832"
       sodipodi:nodetypes="ssssscssssssssssssscscssssssssssssssssssssssssssssssssscsssssssssssssssssssssssssssssssssssssssscssccssssssssssscsssscssssscscsssssssssscsssscsssscsssssccsssscsssssssssssssssscsssssssscssssscsscccsscsssssscssssscsssssssssssssss" /></g></svg>
